<?xml version="1.0" encoding="utf-8"?>
<svg version="1.1" xmlns:xlink="http://www.w3.org/1999/xlink" width="20px" height="23px" xmlns="http://www.w3.org/2000/svg">
  <g transform="matrix(1 0 0 1 -44 -354 )">
    <path d="M 18.0198027038448 8.08450060351239  C 18.1856131792862 8.08450060351239  18.400544777272 8.08207527335441  18.6330194959252 8.07945253260218  C 18.9068179671868 8.07636352682732  19.2049510029353 8.07300002632141  19.4758297880689 8.07300002632141  C 19.7670348202383 8.07300002632141  20 8.30300028953554  20 8.59049967850275  C 20 8.59049967850275  20 17.8365002951758  20 17.8365002951758  C 20 20.6885005508696  17.6587079254091 23  14.7699487362356 23  C 14.7699487362356 23  5.49796179750342 23  5.49796179750342 23  C 2.46942359664171 23  0 20.5735004192625  0 17.5835007576807  C 0 17.5835007576807  0 5.18650038918089  0 5.18650038918089  C 0 2.33450036849978  2.35294100676086 0  5.25334864726018 0  C 5.25334864726018 0  11.4735000016349 0  11.4735000016349 0  C 11.7763539659743 0  12.009319145736 0.241500017860959  12.009319145736 0.528999994359697  C 12.009319145736 0.528999994359697  12.009319145736 4.23199995487758  12.009319145736 4.23199995487758  C 12.009319145736 6.33650029517584  13.768201155988 8.06150038918089  15.8998259151572 8.07300002632141  C 16.397728568821 8.07300002632141  16.8366758738719 8.07663802155838  17.2208127075203 8.07982197242857  C 17.5196670096048 8.08229900536123  17.7853469069888 8.08450060351239  18.0198027038448 8.08450060351239  Z M 5.50960976798497 15.686000466265  C 5.50960976798497 16.1575006298338  5.9056494195537 16.548501453318  6.38322678787019 16.548501453318  C 6.38322678787019 16.548501453318  12.7198607321257 16.548501453318  12.7198607321257 16.548501453318  C 13.1974381004422 16.548501453318  13.5934787136994 16.1575006298338  13.5934787136994 15.686000466265  C 13.5934787136994 15.2145012427467  13.1974381004422 14.8350009964535  12.7198607321257 14.8350009964535  C 12.7198607321257 14.8350009964535  6.38322678787019 14.8350009964535  6.38322678787019 14.8350009964535  C 5.9056494195537 14.8350009964535  5.50960976798497 15.2145012427467  5.50960976798497 15.686000466265  Z M 11.1939439016354 9.947501043456  C 11.1939439016354 9.47600087988722  10.7979042500667 9.08500099645348  10.3203268817502 9.08500099645348  C 10.3203268817502 9.08500099645348  6.38322678787019 9.08500099645348  6.38322678787019 9.08500099645348  C 5.9056494195537 9.08500099645348  5.50960976798497 9.47600087988722  5.50960976798497 9.947501043456  C 5.50960976798497 10.4190012070248  5.9056494195537 10.798501453318  6.38322678787019 10.798501453318  C 6.38322678787019 10.798501453318  10.3203268817502 10.798501453318  10.3203268817502 10.798501453318  C 10.7979042500667 10.798501453318  11.1939439016354 10.4190012070248  11.1939439016354 9.947501043456  Z M 19.3537569032401 5.47285009644918  C 19.6938849501336 5.82130000639234  19.4446133810485 6.39975017954964  18.95422343754 6.40090033127378  C 17.9967394914861 6.40435031642098  16.868026917275 6.40090033127378  16.0561454873058 6.39285020925523  C 14.7678512937306 6.39285020925523  13.7066982946763 5.34520017597744  13.7066982946763 4.07330016808102  C 13.7066982946763 4.07330016808102  13.7066982946763 1.04189997969491  13.7066982946763 1.04189997969491  C 13.7066982946763 0.546249978848865  14.3159000374866 0.300150029752597  14.6641822407302 0.657800007802419  C 15.2953027866461 1.30567461044718  16.1628650160631 2.19651600341884  17.0261842760477 3.0830007325854  C 17.8853086510223 3.96517650550714  18.7402304474794 4.84303791689398  19.3537569032401 5.47285009644918  Z " fill-rule="nonzero" fill="#6c60ff" stroke="none" transform="matrix(1 0 0 1 44 354 )" />
  </g>
</svg>