<?xml version="1.0" encoding="utf-8"?>
<svg version="1.1" xmlns:xlink="http://www.w3.org/1999/xlink" width="40px" height="85px" xmlns="http://www.w3.org/2000/svg">
  <g transform="matrix(1 0 0 1 -195 -296 )">
    <path d="M 0 76.8562874251497  C 0 76.8562874251497  0 8.1437125748503  0 8.1437125748503  C 0 5.29314576508756  0 3.86786260290774  0.566199909556996 2.77909023319176  C 1.06424337857729 1.82137906551361  1.85894761766706 1.04273546598629  2.83641294999556 0.554757246714152  C 3.94764280938483 0  5.40232472605519 0  8.31168831168831 0  C 8.31168831168831 0  31.6883116883117 0  31.6883116883117 0  C 34.59767576936 0  36.0523554566619 0  37.1635853160511 0.554757246714152  C 38.1410506483796 1.04273546598629  38.9357563737151 1.82137906551361  39.4337998427354 2.77909023319176  C 39.9999997522924 3.86786260290774  40 5.29314576508756  40 8.1437125748503  C 40 8.1437125748503  40 76.8562874251497  40 76.8562874251497  C 40 79.7068542349124  39.9999997522924 81.1321356981814  39.4337998427354 82.2209080678974  C 38.9357563737151 83.1786192355756  38.1410506483796 83.9572642913122  37.1635853160511 84.4452425105843  C 36.0523554566619 84.9999997572985  34.5976752739448 85  31.6883116883117 85  C 31.6883116883117 85  8.31168930251877 85  8.31168930251877 85  C 5.40232522147042 85  3.94764280938483 84.9999997572985  2.83641294999556 84.4452425105843  C 1.85894761766706 83.9572642913122  1.06424337857729 83.1786192355756  0.566199909556996 82.2209080678974  C 0 81.1321356981814  0 79.7068542349124  0 76.8562874251497  Z " fill-rule="nonzero" fill="#ffffff" stroke="none" transform="matrix(1 0 0 1 195 296 )" />
  </g>
</svg>